<svg xmlns="http://www.w3.org/2000/svg" viewBox="0 0 128 128">
  <rect width="128" height="128" rx="24" fill="#0f172a"/>
  <path fill="#4ADE80" d="M50 24c-18 0-17 8-17 18v14h34v8H33c-10 0-19 6-19 17v20c0 11 8 17 18 17h14c10 0 17-7 17-18V58h-34v-8h34c10 0 18 7 18 17v34c0 10-8 18-18 18H41c-10 0-18-8-18-18V66c0-10 8-18 18-18h14z"/>
  <path fill="#38BDF8" d="M78 24c10 0 18 8 18 18v14H62v8h34c10 0 19 6 19 17v20c0 11-9 17-19 17H78c-10 0-17-7-17-18V58h34v-8H61c-10 0-18 7-18 17v34c0 10 8 18 18 18h14c10 0 18-8 18-18V66c0-10-8-18-18-18H78z"/>
</svg>